<svg xmlns="http://www.w3.org/2000/svg" viewBox="0 0 900 640" role="img" aria-label="Assetra dashboard theme preview">
  <defs>
    <linearGradient id="bg" x1="0" x2="1" y1="0" y2="1"><stop offset="0" stop-color="#07101c"/><stop offset="1" stop-color="#0f1418"/></linearGradient>
    <linearGradient id="bar" x1="0" x2="0" y1="0" y2="1"><stop offset="0" stop-color="#8ed5ff"/><stop offset="1" stop-color="#38bdf8"/></linearGradient>
  </defs>
  <rect width="900" height="640" fill="url(#bg)"/>
  <rect x="66" y="70" width="768" height="500" rx="28" fill="#fff" opacity=".045" stroke="#8ed5ff" stroke-opacity=".16"/>
  <rect x="102" y="112" width="214" height="416" rx="18" fill="#fff" opacity=".05"/>
  <rect x="348" y="112" width="450" height="190" rx="18" fill="#fff" opacity=".055"/>
  <rect x="348" y="330" width="450" height="198" rx="18" fill="#fff" opacity=".055"/>
  <g font-family="Inter,Arial">
    <text x="126" y="156" fill="#dee3e8" font-size="34" font-weight="700">Assetra</text>
    <text x="126" y="190" fill="#87929a" font-size="18">portfolio overview</text>
    <text x="382" y="156" fill="#8ed5ff" font-size="26" font-weight="700">Asset Flow</text>
    <text x="382" y="374" fill="#56ddac" font-size="26" font-weight="700">Recent Records</text>
  </g>
  <g fill="#38bdf8" opacity=".82">
    <rect x="388" y="238" width="42" height="36" rx="8"/>
    <rect x="456" y="204" width="42" height="70" rx="8"/>
    <rect x="524" y="178" width="42" height="96" rx="8"/>
    <rect x="592" y="218" width="42" height="56" rx="8"/>
    <rect x="660" y="164" width="42" height="110" rx="8"/>
    <rect x="728" y="190" width="42" height="84" rx="8"/>
  </g>
  <g fill="none" stroke="#56ddac" stroke-width="5" stroke-linecap="round" stroke-linejoin="round">
    <path d="M384 250C438 232 458 244 512 204S612 214 664 168s70 18 108-6"/>
  </g>
  <g>
    <rect x="126" y="232" width="154" height="16" rx="8" fill="#bdc8d1" opacity=".35"/>
    <rect x="126" y="276" width="118" height="16" rx="8" fill="#bdc8d1" opacity=".28"/>
    <rect x="126" y="320" width="172" height="16" rx="8" fill="#bdc8d1" opacity=".34"/>
    <rect x="126" y="424" width="74" height="74" rx="18" fill="#38bdf8" opacity=".16"/>
    <rect x="218" y="424" width="74" height="74" rx="18" fill="#56ddac" opacity=".14"/>
  </g>
  <g fill="#bdc8d1" opacity=".4">
    <rect x="382" y="412" width="360" height="12" rx="6"/>
    <rect x="382" y="454" width="320" height="12" rx="6"/>
    <rect x="382" y="496" width="374" height="12" rx="6"/>
  </g>
</svg>
