<svg xmlns="http://www.w3.org/2000/svg" viewBox="0 0 900 640" role="img" aria-label="The Deven MERN blog app theme preview">
  <defs>
    <linearGradient id="bg" x1="0" x2="1" y1="0" y2="1"><stop offset="0" stop-color="#050816"/><stop offset=".55" stop-color="#111827"/><stop offset="1" stop-color="#0f1418"/></linearGradient>
  </defs>
  <rect width="900" height="640" fill="url(#bg)"/>
  <circle cx="760" cy="94" r="180" fill="#ffc176" opacity=".08"/>
  <circle cx="118" cy="526" r="220" fill="#38bdf8" opacity=".09"/>
  <rect x="86" y="78" width="728" height="484" rx="30" fill="#fff" opacity=".045" stroke="#8ed5ff" stroke-opacity=".15"/>
  <rect x="128" y="122" width="644" height="70" rx="18" fill="#fff" opacity=".05"/>
  <rect x="128" y="230" width="300" height="276" rx="20" fill="#fff" opacity=".055"/>
  <rect x="464" y="230" width="308" height="122" rx="20" fill="#fff" opacity=".055"/>
  <rect x="464" y="384" width="308" height="122" rx="20" fill="#fff" opacity=".055"/>
  <g font-family="Inter,Arial">
    <text x="158" y="166" fill="#dee3e8" font-size="34" font-weight="700">The Deven</text>
    <text x="604" y="166" fill="#8ed5ff" font-size="18" font-weight="700">MERN Blog</text>
    <text x="158" y="288" fill="#8ed5ff" font-size="25" font-weight="700">Featured Article</text>
  </g>
  <g>
    <rect x="158" y="324" width="222" height="13" rx="7" fill="#bdc8d1" opacity=".38"/>
    <rect x="158" y="360" width="196" height="13" rx="7" fill="#bdc8d1" opacity=".28"/>
    <rect x="158" y="396" width="238" height="13" rx="7" fill="#bdc8d1" opacity=".34"/>
    <rect x="158" y="446" width="92" height="34" rx="10" fill="#38bdf8" opacity=".2"/>
  </g>
  <g>
    <rect x="494" y="266" width="96" height="52" rx="14" fill="#38bdf8" opacity=".18"/>
    <rect x="612" y="276" width="118" height="12" rx="6" fill="#bdc8d1" opacity=".35"/>
    <rect x="612" y="306" width="82" height="12" rx="6" fill="#bdc8d1" opacity=".22"/>
    <rect x="494" y="420" width="96" height="52" rx="14" fill="#56ddac" opacity=".16"/>
    <rect x="612" y="430" width="126" height="12" rx="6" fill="#bdc8d1" opacity=".35"/>
    <rect x="612" y="460" width="90" height="12" rx="6" fill="#bdc8d1" opacity=".22"/>
  </g>
</svg>
